<svg height="500" preserveAspectRatio="xMidYMid meet" viewBox="0 0 375 374.999991" width="500" xmlns="http://www.w3.org/2000/svg" zoomAndPan="magnify"><path d="m85.296875-6.1875c0 6.0625-.976563 11.578125-2.921875 16.546875-1.9375 4.976563-4.695312 9.222656-8.265625 12.734375-3.574219 3.519531-7.851563 6.25-12.828125 8.1875-4.96875 1.9375-10.484375 2.90625-16.546875 2.90625-5.460937 0-10.671875-.851562-15.640625-2.546875-4.96875-1.699219-9.335938-4.15625-13.09375-7.375-3.761719-3.210937-6.761719-7.117187-9-11.71875-2.242188-4.605469-3.359375-9.820313-3.359375-15.640625 0-5.570312.96875-10.359375 2.90625-14.359375s4.570313-7.300781 7.90625-9.90625c3.332031-2.613281 7.242187-4.554687 11.734375-5.828125 4.488281-1.269531 9.273438-1.90625 14.359375-1.90625v.71875c-4.367187.25-8.398437 1.3125-12.09375 3.1875-3.6875 1.875-6.839844 4.328125-9.453125 7.359375-2.605469 3.03125-4.636719 6.492187-6.09375 10.375-1.449219 3.875-2.171875 7.996094-2.171875 12.359375 0 4.96875.816406 9.484375 2.453125 13.546875 1.632812 4.0625 3.90625 7.546875 6.8125 10.453125 2.914062 2.914062 6.429688 5.160156 10.546875 6.734375 4.125 1.570313 8.671875 2.359375 13.640625 2.359375 9.820312 0 17.488281-2.882812 23-8.640625 5.519531-5.75 8.28125-13.539063 8.28125-23.359375 0-5.207031-1.183594-9.960938-3.546875-14.265625-2.367187-4.3125-5.335937-8.375-8.90625-12.1875-3.574219-3.820313-7.453125-7.488281-11.640625-11-4.1875-3.519531-8.070312-7.035156-11.640625-10.546875-3.574219-3.519531-6.542969-7.160156-8.90625-10.921875-2.367187-3.757813-3.546875-7.820313-3.546875-12.1875 0-3.144531.570312-5.988281 1.71875-8.53125 1.15625-2.550781 2.734375-4.675781 4.734375-6.375 2-1.695313 4.332031-3 7-3.90625 2.664063-.914063 5.515625-1.375 8.546875-1.375 1.21875 0 2.398438.125 3.546875.375 1.15625.242187 2.273437.480469 3.359375.71875l4.546875 1.453125c2.425781.730469 4.734375 1.09375 6.921875 1.09375 1.695312 0 3.03125-.664062 4-2l-1.28125 21.09375c-.480469-2.425781-1.328125-4.910156-2.546875-7.453125-1.210937-2.550781-2.757813-4.851563-4.640625-6.90625-1.875-2.0625-3.996094-3.789063-6.359375-5.1875-2.367187-1.394531-4.9375-2.09375-7.71875-2.09375-4.492187 0-8.34375 1.214844-11.5625 3.640625-3.210937 2.429688-4.8125 6.0625-4.8125 10.90625 0 3.761719 1.300781 7.371094 3.90625 10.828125 2.601563 3.449219 5.84375 6.84375 9.71875 10.1875 3.882813 3.335937 8.097656 6.730469 12.640625 10.1875 4.550781 3.449219 8.765625 7.117187 12.640625 11 3.882813 3.875 7.128906 8.058594 9.734375 12.546875 2.613281 4.480469 3.921875 9.386719 3.921875 14.71875zm0 0" transform="translate(112.173689 216.374986)"/><path d="m65.875-10.9375 8.609375 10.9375h-10.046875l-52.828125-67.078125v48.953125c0 2.585938.144531 4.929688.4375 7.03125.289063 2.09375.640625 3.898438 1.046875 5.40625.40625 1.511719.847656 2.671875 1.328125 3.484375.476563.804687.9375 1.203125 1.375 1.203125v1h-9.390625v-1c.445312 0 .910156-.398438 1.390625-1.203125.476563-.8125.914063-1.972656 1.3125-3.484375.40625-1.507812.753906-3.3125 1.046875-5.40625.300781-2.101562.453125-4.445312.453125-7.03125v-50.171875l-7.296875-9.28125h10.0625l51.5 65.421875v-47.40625c0-2.582031-.152344-4.921875-.453125-7.015625-.292969-2.101563-.640625-3.890625-1.046875-5.359375-.40625-1.476562-.851562-2.625-1.328125-3.4375-.46875-.8125-.929687-1.21875-1.375-1.21875v-.984375h9.390625v.984375c-.4375 0-.898438.40625-1.375 1.21875-.480469.8125-.921875 1.960938-1.328125 3.4375-.40625 1.46875-.757813 3.257812-1.046875 5.359375-.292969 2.09375-.4375 4.433594-.4375 7.015625zm0 0" transform="translate(161.528915 222.414398)"/><path d="m.140625-.8125c-.011719-.03125-.015625-.0625-.015625-.09375l.203125-1.4375.390625.046875v.046875c.019531.230469.085938.460938.203125.6875.113281.21875.265625.421875.453125.609375s.390625.339844.609375.453125c.226563.117188.46875.171875.71875.171875.28125 0 .519531-.082031.71875-.25.195313-.164063.296875-.390625.296875-.671875 0-.195312-.058594-.367188-.171875-.515625-.117187-.15625-.257813-.285156-.421875-.390625-.15625-.113281-.3125-.210938-.46875-.296875-.105469-.050781-.210938-.101563-.3125-.15625-.105469-.0625-.214844-.117187-.328125-.171875-.28125-.15625-.558594-.320312-.828125-.5-.273438-.175781-.496094-.382812-.671875-.625-.179687-.25-.265625-.546875-.265625-.890625 0-.425781.113281-.773437.34375-1.046875.226562-.28125.519531-.484375.875-.609375.363281-.132813.738281-.203125 1.125-.203125.175781 0 .378906.023438.609375.0625.238281.03125.46875.085938.6875.15625.226563.074219.414063.171875.5625.296875.019531.011719.046875.039063.078125.078125.019531.023438.035156.042969.046875.0625.007813.011719.015625.03125.015625.0625l.1875 1.484375h-.4375v-.03125c-.074219-.1875-.171875-.378906-.296875-.578125-.125-.195312-.273437-.382812-.4375-.5625-.167969-.1875-.351563-.332031-.546875-.4375-.1875-.113281-.390625-.171875-.609375-.171875-.28125 0-.511719.078125-.6875.234375-.179687.148438-.265625.355469-.265625.625 0 .199219.046875.375.140625.53125.09375.148438.21875.289062.375.421875.175781.148437.363281.277344.5625.390625.207031.117188.414063.21875.625.3125.289063.15625.570313.324219.84375.5.269531.179688.492187.390625.671875.640625.175781.242187.265625.53125.265625.875 0 .335937-.074219.621094-.21875.859375-.148437.230469-.34375.417969-.59375.5625-.242187.136719-.507813.2304688-.796875.28125-.292969.0625-.585938.09375-.875.09375-.230469 0-.484375-.0273438-.765625-.078125s-.554687-.128906-.8125-.234375c-.261719-.113281-.480469-.253906-.65625-.421875 0-.019531-.011719-.035156-.03125-.046875-.011719-.019531-.027344-.039062-.046875-.0625-.011719-.007812-.023438-.019531-.03125-.03125 0-.019531-.007812-.03125-.015625-.03125zm0 0" transform="translate(200.432526 236.842763)"/><path d="m.046875-4.453125.453125-2.09375h5.359375l.453125 2.09375-.40625.03125-.015625-.046875c-.117187-.25-.257813-.5-.421875-.75-.167969-.257812-.359375-.472656-.578125-.640625-.21875-.164063-.46875-.25-.75-.25h-.375v5.28125c0 .148437.046875.25.140625.3125s.210938.089844.359375.078125h.078125v.4375h-2.4375v-.4375h.078125c.320313.023438.484375-.109375.484375-.390625v-5.28125h-.359375c-.261719 0-.496094.089844-.703125.265625-.199219.167969-.371094.382812-.515625.640625-.148437.25-.277344.496094-.390625.734375l-.03125.046875zm0 0" transform="translate(206.597732 236.842763)"/><path d="m.0625-.4375h.0625c.15625.011719.28125-.015625.375-.078125s.140625-.164063.140625-.3125v-4.890625c0-.144531-.046875-.25-.140625-.3125s-.21875-.085938-.375-.078125h-.0625v-.4375h4.859375l.453125 2.09375-.421875.03125-.015625-.0625c-.054688-.09375-.101562-.191406-.140625-.296875-.03125-.113281-.074219-.222656-.125-.328125-.15625-.332031-.359375-.582031-.609375-.75-.242188-.164063-.554688-.25-.9375-.25h-1.203125v2.703125h.515625.5c.351562-.007812.628906-.066406.828125-.171875.207031-.113281.3125-.34375.3125-.6875v-.0625h.4375v2.125h-.4375v-.0625c0-.21875-.054687-.375-.15625-.46875-.105469-.09375-.242187-.148437-.40625-.171875-.167969-.03125-.359375-.046875-.578125-.046875-.167969 0-.335938 0-.5 0-.167969 0-.339844 0-.515625 0v2.515625h1.671875c.34375 0 .617188-.085938.828125-.265625.207031-.175781.378906-.410156.515625-.703125.050781-.101562.09375-.210938.125-.328125.039062-.113281.085938-.226563.140625-.34375l.015625-.03125.421875.015625-.453125 2.09375h-5.125zm0 0" transform="translate(213.999667 236.842763)"/><path d="m.03125-6.546875h2.765625v.4375h-.0625c-.09375 0-.203125.011719-.328125.03125-.117188.023437-.171875.09375-.171875.21875 0 .054687.007813.105469.03125.15625l1.765625 4.15625 1.609375-3.875c.03125-.082031.046875-.175781.046875-.28125 0-.164063-.074219-.269531-.21875-.3125-.136719-.050781-.265625-.082031-.390625-.09375-.0625 0-.121094 0-.171875 0-.042969 0-.089844 0-.140625 0h-.0625v-.4375h2.515625v.421875l-.0625.015625c-.242188.011719-.445312.085937-.609375.21875-.15625.125-.28125.296875-.375.515625l-2.328125 5.375h-.5625l-2.390625-5.65625c-.074219-.175781-.179687-.296875-.3125-.359375-.125-.0625-.289063-.09375-.484375-.09375h-.0625zm0 0" transform="translate(220.748053 236.842763)"/><path d="m.0625-.4375h.0625c.15625.011719.28125-.015625.375-.078125s.140625-.164063.140625-.3125v-4.890625c0-.144531-.046875-.25-.140625-.3125s-.21875-.085938-.375-.078125h-.0625v-.4375h4.859375l.453125 2.09375-.421875.03125-.015625-.0625c-.054688-.09375-.101562-.191406-.140625-.296875-.03125-.113281-.074219-.222656-.125-.328125-.15625-.332031-.359375-.582031-.609375-.75-.242188-.164063-.554688-.25-.9375-.25h-1.203125v2.703125h.515625.5c.351562-.007812.628906-.066406.828125-.171875.207031-.113281.3125-.34375.3125-.6875v-.0625h.4375v2.125h-.4375v-.0625c0-.21875-.054687-.375-.15625-.46875-.105469-.09375-.242187-.148437-.40625-.171875-.167969-.03125-.359375-.046875-.578125-.046875-.167969 0-.335938 0-.5 0-.167969 0-.339844 0-.515625 0v2.515625h1.671875c.34375 0 .617188-.085938.828125-.265625.207031-.175781.378906-.410156.515625-.703125.050781-.101562.09375-.210938.125-.328125.039062-.113281.085938-.226563.140625-.34375l.015625-.03125.421875.015625-.453125 2.09375h-5.125zm0 0" transform="translate(229.024752 236.842763)"/><path d="m.09375 0v-.4375h.0625c.25 0 .429688-.039062.546875-.125.125-.082031.1875-.25.1875-.5v-4.640625c0-.101563-.039063-.179687-.109375-.234375-.074219-.0625-.164062-.101562-.265625-.125-.105469-.03125-.199219-.046875-.28125-.046875h-.0625v-.4375h1.828125l3.125 4.3125v-3.25c0-.25-.09375-.414063-.28125-.5-.179688-.082031-.390625-.125-.640625-.125h-.0625v-.4375h2.265625v.4375h-.0625c-.242188 0-.429688.042969-.5625.125-.136719.085937-.203125.25-.203125.5v5.484375h-.40625l-3.828125-5.25v4.1875c0 .25.085938.417969.265625.5.1875.085938.40625.125.65625.125h.0625v.4375zm0 0" transform="translate(235.773138 236.842763)"/><path d="m.046875-4.453125.453125-2.09375h5.359375l.453125 2.09375-.40625.03125-.015625-.046875c-.117187-.25-.257813-.5-.421875-.75-.167969-.257812-.359375-.472656-.578125-.640625-.21875-.164063-.46875-.25-.75-.25h-.375v5.28125c0 .148437.046875.25.140625.3125s.210938.089844.359375.078125h.078125v.4375h-2.4375v-.4375h.078125c.320313.023438.484375-.109375.484375-.390625v-5.28125h-.359375c-.261719 0-.496094.089844-.703125.265625-.199219.167969-.371094.382812-.515625.640625-.148437.25-.277344.496094-.390625.734375l-.03125.046875zm0 0" transform="translate(246.424428 236.842763)"/><path d="m.828125-.609375c0-.1875.066406-.347656.203125-.484375.144531-.144531.316406-.21875.515625-.21875.195313 0 .363281.074219.5.21875.144531.136719.21875.296875.21875.484375s-.074219.355469-.21875.5c-.136719.1328125-.304687.203125-.5.203125-.210937 0-.382813-.0703125-.515625-.203125-.136719-.144531-.203125-.3125-.203125-.5zm0 0" transform="translate(253.826363 236.842763)"/><path d="m.09375 0v-.4375h.0625c.25 0 .429688-.039062.546875-.125.125-.082031.1875-.25.1875-.5v-4.640625c0-.101563-.039063-.179687-.109375-.234375-.074219-.0625-.164062-.101562-.265625-.125-.105469-.03125-.199219-.046875-.28125-.046875h-.0625v-.4375h1.828125l3.125 4.3125v-3.25c0-.25-.09375-.414063-.28125-.5-.179688-.082031-.390625-.125-.640625-.125h-.0625v-.4375h2.265625v.4375h-.0625c-.242188 0-.429688.042969-.5625.125-.136719.085937-.203125.25-.203125.5v5.484375h-.40625l-3.828125-5.25v4.1875c0 .25.085938.417969.265625.5.1875.085938.40625.125.65625.125h.0625v.4375zm0 0" transform="translate(200.432526 246.592762)"/><path d="m.0625-.4375h.0625c.15625.011719.28125-.015625.375-.078125s.140625-.164063.140625-.3125v-4.890625c0-.144531-.046875-.25-.140625-.3125s-.21875-.085938-.375-.078125h-.0625v-.4375h4.859375l.453125 2.09375-.421875.03125-.015625-.0625c-.054688-.09375-.101562-.191406-.140625-.296875-.03125-.113281-.074219-.222656-.125-.328125-.15625-.332031-.359375-.582031-.609375-.75-.242188-.164063-.554688-.25-.9375-.25h-1.203125v2.703125h.515625.5c.351562-.007812.628906-.066406.828125-.171875.207031-.113281.3125-.34375.3125-.6875v-.0625h.4375v2.125h-.4375v-.0625c0-.21875-.054687-.375-.15625-.46875-.105469-.09375-.242187-.148437-.40625-.171875-.167969-.03125-.359375-.046875-.578125-.046875-.167969 0-.335938 0-.5 0-.167969 0-.339844 0-.515625 0v2.515625h1.671875c.34375 0 .617188-.085938.828125-.265625.207031-.175781.378906-.410156.515625-.703125.050781-.101562.09375-.210938.125-.328125.039062-.113281.085938-.226563.140625-.34375l.015625-.03125.421875.015625-.453125 2.09375h-5.125zm0 0" transform="translate(207.975235 246.592762)"/><path d="m.046875-6.109375v-.4375h2.859375v.4375h-.0625c-.0625 0-.140625.007813-.234375.015625-.09375.011719-.179687.039062-.25.078125-.074219.03125-.109375.089844-.109375.171875 0 .042969.007812.089844.03125.140625l1.75 4.15625 1.21875-2.875-.546875-1.234375c-.074219-.175781-.171875-.296875-.296875-.359375s-.289062-.09375-.484375-.09375h-.0625v-.4375h2.875v.4375h-.078125c-.054688 0-.132812.007813-.234375.015625-.09375.011719-.179687.039062-.25.078125-.074219.03125-.109375.089844-.109375.171875 0 .054688.007812.101562.03125.140625l1.765625 4.15625 1.609375-3.875c.03125-.082031.046875-.164063.046875-.25 0-.113281-.039063-.195313-.109375-.25-.0625-.050781-.148438-.09375-.25-.125-.09375-.03125-.203125-.050781-.328125-.0625-.0625 0-.121094 0-.171875 0-.054688 0-.105469 0-.15625 0h-.078125v-.4375h2.734375v.421875l-.0625.015625c-.25.011719-.476562.085937-.671875.21875-.1875.125-.335937.296875-.4375.515625l-2.3125 5.375h-.5625l-1.609375-3.796875-1.640625 3.796875h-.5625l-2.40625-5.65625c-.074219-.175781-.171875-.296875-.296875-.359375s-.289062-.09375-.484375-.09375zm0 0" transform="translate(214.723621 246.592762)"/><path d="m3.3125.125c-.710938 0-1.296875-.140625-1.765625-.421875s-.824219-.675781-1.0625-1.1875c-.230469-.507813-.34375-1.101563-.34375-1.78125 0-.65625.128906-1.238281.390625-1.75.257812-.507813.628906-.910156 1.109375-1.203125.488281-.289062 1.070313-.4375 1.75-.4375.375 0 .738281.054688 1.09375.15625.351563.105469.679687.277344.984375.515625.019531.023437.0625.070313.125.140625.0625.0625.101562.109375.125.140625l.125 1.1875h-.375c-.148438-.28125-.320312-.550781-.515625-.8125-.199219-.257813-.429687-.46875-.6875-.625-.261719-.164063-.574219-.25-.9375-.25-.324219 0-.605469.101563-.84375.296875-.230469.1875-.417969.433594-.5625.734375-.148437.304687-.257813.621094-.328125.953125-.0625.324219-.09375.621094-.09375.890625 0 .273437.03125.578125.09375.921875.070312.335938.179688.65625.328125.96875.15625.3125.351563.570312.59375.765625.238281.199219.523437.296875.859375.296875.40625 0 .738281-.066406 1-.203125.269531-.144531.492188-.34375.671875-.59375.1875-.25.34375-.535156.46875-.859375h.390625l-.125 1.125c-.023438.054688-.0625.105469-.125.15625-.054688.054688-.09375.101562-.125.140625-.292969.28125-.636719.476563-1.03125.578125-.386719.1015625-.78125.15625-1.1875.15625zm0 0" transform="translate(226.981982 246.592762)"/><path d="m.21875-3.296875c0-.425781.050781-.835937.15625-1.234375.113281-.40625.285156-.765625.515625-1.078125.226563-.320313.519531-.578125.875-.765625.363281-.1875.800781-.28125 1.3125-.28125.5 0 .929687.09375 1.296875.28125.363281.1875.660156.4375.890625.75.226563.3125.394531.667969.5 1.0625.113281.398438.171875.808594.171875 1.234375 0 .417969-.058594.828125-.171875 1.234375-.105469.40625-.273437.777344-.5 1.109375-.230469.324219-.527344.585937-.890625.78125-.367188.19921875-.804688.296875-1.3125.296875-.511719 0-.949219-.09375-1.3125-.28125-.355469-.195312-.648438-.457031-.875-.78125-.21875-.320312-.386719-.6875-.5-1.09375-.105469-.40625-.15625-.816406-.15625-1.234375zm1.359375 0c0 .1875.007813.414063.03125.671875.019531.261719.054687.527344.109375.796875.0625.261719.144531.507813.25.734375.113281.230469.257812.417969.4375.5625.175781.136719.394531.203125.65625.203125.269531 0 .492188-.066406.671875-.203125.175781-.144531.320313-.332031.4375-.5625.113281-.226562.195313-.476562.25-.75.0625-.269531.101563-.53125.125-.78125.019531-.257812.03125-.484375.03125-.671875 0-.195313-.011719-.421875-.03125-.671875-.023437-.257812-.0625-.519531-.125-.78125-.054687-.257812-.136719-.5-.25-.71875-.105469-.226562-.25-.410156-.4375-.546875-.179687-.144531-.398437-.21875-.65625-.21875-.273437 0-.496094.074219-.671875.21875-.179688.136719-.324219.320313-.4375.546875-.105469.21875-.1875.460938-.25.71875-.054688.261719-.089844.523438-.109375.78125-.023437.261719-.03125.484375-.03125.671875zm0 0" transform="translate(234.062166 246.592762)"/><path d="m2.453125 0h-2.296875v-.4375h.0625c.25 0 .4375-.039062.5625-.125.125-.082031.1875-.25.1875-.5v-4.65625c0-.132812-.074219-.234375-.21875-.296875-.148438-.0625-.28125-.09375-.40625-.09375h-.078125v-.4375h1.890625l2.3125 4.765625 1.875-4.703125v-.0625h1.859375v.4375h-.078125c-.148438 0-.265625.03125-.359375.09375-.085937.054687-.125.152344-.125.296875v4.890625c0 .148437.039063.25.125.3125.09375.054687.210937.078125.359375.078125h.078125v.4375h-2.421875v-.4375h.0625c.15625 0 .273438-.023438.359375-.078125.09375-.0625.140625-.164063.140625-.3125v-4.484375l-2.078125 5.21875h-.390625l-2.453125-5.015625v4.046875c0 .292969.085937.46875.265625.53125.1875.0625.421875.09375.703125.09375h.0625zm0 0" transform="translate(241.222791 246.592762)"/><path d="m1.84375 0h-1.796875v-.4375h.078125c.15625 0 .273438-.023438.359375-.078125.09375-.0625.140625-.164063.140625-.3125v-4.890625c0-.144531-.046875-.25-.140625-.3125-.085937-.0625-.203125-.085938-.359375-.078125h-.078125v-.4375h1.796875.34375.359375c.175781 0 .359375.007813.546875.015625.1875 0 .375.027344.5625.078125.375.085937.671875.257813.890625.515625.21875.261719.328125.578125.328125.953125 0 .292969-.074219.5625-.21875.8125-.148438.242187-.355469.421875-.625.546875.414062.105469.742188.324219.984375.65625.238281.335938.359375.710938.359375 1.125 0 .460938-.148438.855469-.4375 1.1875-.28125.335938-.664062.542969-1.140625.625-.148437.03125-.292969.046875-.4375.046875-.148437.0078125-.292969.015625-.4375.015625-.179687 0-.359375-.0078125-.546875-.015625-.179688-.01171875-.355469-.015625-.53125-.015625zm.0625-.4375c.09375 0 .175781.007812.25.015625h.265625c.5 0 .878906-.117187 1.140625-.359375.269531-.238281.40625-.601562.40625-1.09375 0-.289062-.070312-.5625-.203125-.8125-.136719-.25-.351563-.421875-.640625-.515625-.117188-.039063-.242188-.066406-.375-.078125-.125-.007812-.25-.015625-.375-.015625-.085938 0-.167969 0-.25 0-.074219 0-.148438 0-.21875 0zm0-5.6875v2.40625h.109375.109375c.132812 0 .273438-.003906.421875-.015625.15625-.007813.289063-.03125.40625-.0625.226563-.070313.390625-.210937.484375-.421875.09375-.207031.140625-.421875.140625-.640625s-.054687-.441406-.15625-.671875c-.105469-.238281-.261719-.398438-.46875-.484375-.117187-.050781-.25-.082031-.40625-.09375-.15625-.007813-.304687-.015625-.4375-.015625zm0 0" transform="translate(250.64573 246.592762)"/></svg>