<svg xmlns="http://www.w3.org/2000/svg" version="1.1" xmlns:xlink="http://www.w3.org/1999/xlink" width="1000" height="1000"><g clip-path="url(#SvgjsClipPath1095)"><rect width="1000" height="1000" fill="#ffffff"></rect><g transform="matrix(2,0,0,2,0,0)"><svg xmlns="http://www.w3.org/2000/svg" version="1.1" xmlns:xlink="http://www.w3.org/1999/xlink" width="500" height="500"><svg version="1.0" id="Layer_1" xmlns="http://www.w3.org/2000/svg" xmlns:xlink="http://www.w3.org/1999/xlink" x="0px" y="0px" viewBox="0 0 500 500" style="enable-background:new 0 0 500 500;" xml:space="preserve">
<g>
	<g transform="translate(112.173689, 216.374986)">
		<g>
			<path d="M177.6,107.3c0,20.9-3.4,40-10.2,57.1c-6.8,17.2-16.4,31.8-28.9,43.9c-12.5,12.1-27.5,21.6-44.9,28.3
				c-17.4,6.7-36.7,10-57.9,10c-19.1,0-37.4-2.9-54.7-8.8c-17.4-5.9-32.7-14.3-45.8-25.4c-13.2-11.1-23.7-24.6-31.5-40.4
				c-7.8-15.9-11.8-33.9-11.8-54c0-19.2,3.4-35.7,10.2-49.5s16-25.2,27.7-34.2c11.7-9,25.3-15.7,41.1-20.1C-13.5,9.8,3.2,7.6,21,7.6
				V10C5.7,10.9-8.4,14.6-21.3,21C-34.2,27.5-45.3,36-54.4,46.4c-9.1,10.5-16.2,22.4-21.3,35.8c-5.1,13.4-7.6,27.6-7.6,42.6
				c0,17.1,2.9,32.7,8.6,46.7c5.7,14,13.7,26,23.8,36.1c10.2,10.1,22.5,17.8,36.9,23.2c14.4,5.4,30.4,8.1,47.7,8.1
				c34.4,0,61.2-9.9,80.5-29.8c19.3-19.8,29-46.7,29-80.6c0-18-4.1-34.4-12.4-49.2c-8.3-14.9-18.7-28.9-31.2-42.1
				c-12.5-13.2-26.1-25.8-40.7-38C44.2-12.7,30.7-24.9,18.2-37C5.7-49.1-4.7-61.7-13-74.7c-8.3-13-12.4-27-12.4-42.1
				c0-10.9,2-20.7,6-29.4c4-8.8,9.6-16.1,16.6-22c7-5.8,15.2-10.4,24.5-13.5c9.3-3.2,19.3-4.7,29.9-4.7c4.3,0,8.4,0.4,12.4,1.3
				c4,0.8,8,1.7,11.8,2.5l15.9,5c8.5,2.5,16.6,3.8,24.2,3.8c5.9,0,10.6-2.3,14-6.9l-4.5,72.8c-1.7-8.4-4.6-16.9-8.9-25.7
				c-4.2-8.8-9.7-16.7-16.2-23.8c-6.6-7.1-14-13.1-22.3-17.9c-8.3-4.8-17.3-7.2-27-7.2c-15.7,0-29.2,4.2-40.5,12.6
				c-11.2,8.4-16.8,20.9-16.8,37.6c0,13,4.6,25.4,13.7,37.4c9.1,11.9,20.5,23.6,34,35.2c13.6,11.5,28.3,23.2,44.2,35.2
				c15.9,11.9,30.7,24.6,44.2,38c13.6,13.4,25,27.8,34.1,43.3C173.1,72,177.6,88.9,177.6,107.3z"></path>
		</g>
	</g>
</g>
<g>
	<g transform="translate(161.528915, 222.414398)">
		<g>
			<path d="M233.1,105.7l30.1,37.7H228L43.1-88V80.9c0,8.9,0.5,17,1.5,24.3c1,7.2,2.2,13.5,3.7,18.7c1.4,5.2,3,9.2,4.6,12
				c1.7,2.8,3.3,4.2,4.8,4.2v3.5H24.9V140c1.6,0,3.2-1.4,4.9-4.2c1.7-2.8,3.2-6.8,4.6-12c1.4-5.2,2.6-11.4,3.7-18.7
				c1.1-7.3,1.6-15.3,1.6-24.3V-92.2l-25.5-32h35.2l180.3,225.7V-62.1c0-8.9-0.5-17-1.6-24.2c-1-7.3-2.2-13.4-3.7-18.5
				c-1.4-5.1-3-9.1-4.6-11.9c-1.6-2.8-3.3-4.2-4.8-4.2v-3.4h32.9v3.4c-1.5,0-3.1,1.4-4.8,4.2c-1.7,2.8-3.2,6.8-4.6,11.9
				c-1.4,5.1-2.7,11.2-3.7,18.5c-1,7.2-1.5,15.3-1.5,24.2V105.7z"></path>
		</g>
	</g>
</g>
<g>
	<g transform="translate(200.432526, 236.842763)">
		<g>
			<path d="M100.2,176c0-0.1-0.1-0.2-0.1-0.3l0.7-5l1.4,0.2v0.2c0.1,0.8,0.3,1.6,0.7,2.4c0.4,0.8,0.9,1.5,1.6,2.1s1.4,1.2,2.1,1.6
				c0.8,0.4,1.6,0.6,2.5,0.6c1,0,1.8-0.3,2.5-0.9c0.7-0.6,1-1.3,1-2.3c0-0.7-0.2-1.3-0.6-1.8c-0.4-0.5-0.9-1-1.5-1.3
				c-0.5-0.4-1.1-0.7-1.6-1c-0.4-0.2-0.7-0.4-1.1-0.5c-0.4-0.2-0.8-0.4-1.1-0.6c-1-0.5-2-1.1-2.9-1.7c-1-0.6-1.7-1.3-2.4-2.2
				c-0.6-0.9-0.9-1.9-0.9-3.1c0-1.5,0.4-2.7,1.2-3.6c0.8-1,1.8-1.7,3.1-2.1c1.3-0.5,2.6-0.7,3.9-0.7c0.6,0,1.3,0.1,2.1,0.2
				c0.8,0.1,1.6,0.3,2.4,0.5c0.8,0.3,1.4,0.6,2,1c0.1,0,0.2,0.1,0.3,0.3c0.1,0.1,0.1,0.1,0.2,0.2c0,0,0.1,0.1,0.1,0.2l0.7,5.1H115
				v-0.1c-0.3-0.6-0.6-1.3-1-2c-0.4-0.7-1-1.3-1.5-1.9c-0.6-0.6-1.2-1.1-1.9-1.5c-0.7-0.4-1.4-0.6-2.1-0.6c-1,0-1.8,0.3-2.4,0.8
				c-0.6,0.5-0.9,1.2-0.9,2.2c0,0.7,0.2,1.3,0.5,1.8c0.3,0.5,0.8,1,1.3,1.5c0.6,0.5,1.3,1,2,1.3c0.7,0.4,1.4,0.8,2.2,1.1
				c1,0.5,2,1.1,3,1.7c0.9,0.6,1.7,1.3,2.4,2.2c0.6,0.8,0.9,1.8,0.9,3c0,1.2-0.3,2.1-0.8,3c-0.5,0.8-1.2,1.4-2.1,1.9
				c-0.8,0.5-1.8,0.8-2.8,1c-1,0.2-2.1,0.3-3.1,0.3c-0.8,0-1.7-0.1-2.7-0.3c-1-0.2-1.9-0.4-2.8-0.8c-0.9-0.4-1.7-0.9-2.3-1.5
				c0-0.1,0-0.1-0.1-0.2c0-0.1-0.1-0.1-0.2-0.2c0,0-0.1-0.1-0.1-0.1C100.3,176.1,100.3,176,100.2,176z"></path>
		</g>
	</g>
</g>
<g>
	<g transform="translate(206.597732, 236.842763)">
		<g>
			<path d="M115.3,163.4l1.6-7.2h18.8l1.6,7.2l-1.4,0.1l-0.1-0.2c-0.4-0.9-0.9-1.7-1.5-2.6c-0.6-0.9-1.3-1.6-2-2.2
				c-0.8-0.6-1.6-0.9-2.6-0.9h-1.3V176c0,0.5,0.2,0.9,0.5,1.1c0.3,0.2,0.7,0.3,1.3,0.3h0.3v1.5h-8.5v-1.5h0.3
				c1.1,0.1,1.7-0.4,1.7-1.3v-18.2h-1.3c-0.9,0-1.7,0.3-2.5,0.9c-0.7,0.6-1.3,1.3-1.8,2.2c-0.5,0.9-1,1.7-1.4,2.5l-0.1,0.2
				L115.3,163.4z"></path>
		</g>
	</g>
</g>
<g>
	<g transform="translate(213.999667, 236.842763)">
		<g>
			<path d="M133.9,177.3h0.2c0.5,0,1-0.1,1.3-0.3c0.3-0.2,0.5-0.6,0.5-1.1v-16.9c0-0.5-0.2-0.9-0.5-1.1c-0.3-0.2-0.8-0.3-1.3-0.3
				h-0.2v-1.5h17l1.6,7.2l-1.5,0.1l-0.1-0.2c-0.2-0.3-0.4-0.7-0.5-1c-0.1-0.4-0.3-0.8-0.4-1.1c-0.5-1.1-1.3-2-2.1-2.6
				c-0.8-0.6-1.9-0.9-3.3-0.9h-4.2v9.3c0.6,0,1.2,0,1.8,0c0.6,0,1.2,0,1.8,0c1.2,0,2.2-0.2,2.9-0.6c0.7-0.4,1.1-1.2,1.1-2.4v-0.2
				h1.5v7.3h-1.5V171c0-0.8-0.2-1.3-0.5-1.6c-0.4-0.3-0.8-0.5-1.4-0.6c-0.6-0.1-1.3-0.2-2-0.2c-0.6,0-1.2,0-1.8,0
				c-0.6,0-1.2,0-1.8,0v8.7h5.9c1.2,0,2.2-0.3,2.9-0.9c0.7-0.6,1.3-1.4,1.8-2.4c0.2-0.4,0.3-0.7,0.4-1.1c0.1-0.4,0.3-0.8,0.5-1.2
				l0.1-0.1l1.5,0.1l-1.6,7.2h-17.9V177.3z"></path>
		</g>
	</g>
</g>
<g>
	<g transform="translate(220.748053, 236.842763)">
		<g>
			<path d="M150.7,156.2h9.7v1.5h-0.2c-0.3,0-0.7,0-1.1,0.1c-0.4,0.1-0.6,0.3-0.6,0.8c0,0.2,0,0.4,0.1,0.5l6.2,14.3l5.6-13.4
				c0.1-0.3,0.2-0.6,0.2-1c0-0.6-0.3-0.9-0.8-1.1c-0.5-0.2-0.9-0.3-1.4-0.3c-0.2,0-0.4,0-0.6,0c-0.2,0-0.3,0-0.5,0H167v-1.5h8.8v1.5
				l-0.2,0.1c-0.8,0-1.6,0.3-2.1,0.8c-0.5,0.4-1,1-1.3,1.8l-8.1,18.5h-2l-8.4-19.5c-0.3-0.6-0.6-1-1.1-1.2c-0.4-0.2-1-0.3-1.7-0.3
				h-0.2V156.2z"></path>
		</g>
	</g>
</g>
<g>
	<g transform="translate(229.024752, 236.842763)">
		<g>
			<path d="M171.5,177.3h0.2c0.5,0,1-0.1,1.3-0.3c0.3-0.2,0.5-0.6,0.5-1.1v-16.9c0-0.5-0.2-0.9-0.5-1.1c-0.3-0.2-0.8-0.3-1.3-0.3
				h-0.2v-1.5h17l1.6,7.2l-1.5,0.1l-0.1-0.2c-0.2-0.3-0.4-0.7-0.5-1c-0.1-0.4-0.3-0.8-0.4-1.1c-0.5-1.1-1.3-2-2.1-2.6
				c-0.8-0.6-1.9-0.9-3.3-0.9H178v9.3c0.6,0,1.2,0,1.8,0c0.6,0,1.2,0,1.8,0c1.2,0,2.2-0.2,2.9-0.6c0.7-0.4,1.1-1.2,1.1-2.4v-0.2h1.5
				v7.3h-1.5V171c0-0.8-0.2-1.3-0.5-1.6c-0.4-0.3-0.8-0.5-1.4-0.6c-0.6-0.1-1.3-0.2-2-0.2c-0.6,0-1.2,0-1.8,0c-0.6,0-1.2,0-1.8,0
				v8.7h5.9c1.2,0,2.2-0.3,2.9-0.9c0.7-0.6,1.3-1.4,1.8-2.4c0.2-0.4,0.3-0.7,0.4-1.1c0.1-0.4,0.3-0.8,0.5-1.2l0.1-0.1l1.5,0.1
				l-1.6,7.2h-17.9V177.3z"></path>
		</g>
	</g>
</g>
<g>
	<g transform="translate(235.773138, 236.842763)">
		<g>
			<path d="M188.4,178.8v-1.5h0.2c0.9,0,1.5-0.1,1.9-0.4c0.4-0.3,0.7-0.9,0.7-1.7v-16c0-0.4-0.1-0.6-0.4-0.8
				c-0.3-0.2-0.6-0.4-0.9-0.4c-0.4-0.1-0.7-0.2-1-0.2h-0.2v-1.5h6.4l10.9,14.9v-11.2c0-0.9-0.3-1.4-1-1.7c-0.6-0.3-1.4-0.4-2.2-0.4
				h-0.2v-1.5h7.9v1.5h-0.2c-0.8,0-1.5,0.1-2,0.4c-0.5,0.3-0.7,0.9-0.7,1.7v18.9h-1.4l-13.4-18.1v14.4c0,0.9,0.3,1.4,0.9,1.7
				c0.7,0.3,1.4,0.4,2.3,0.4h0.2v1.5H188.4z"></path>
		</g>
	</g>
</g>
<g>
	<g transform="translate(243.315847, 236.842763)">
	</g>
</g>
<g>
	<g transform="translate(246.424428, 236.842763)">
		<g>
			<path d="M214.9,163.4l1.6-7.2h18.8l1.6,7.2l-1.4,0.1l-0.1-0.2c-0.4-0.9-0.9-1.7-1.5-2.6c-0.6-0.9-1.3-1.6-2-2.2
				c-0.8-0.6-1.6-0.9-2.6-0.9h-1.3V176c0,0.5,0.2,0.9,0.5,1.1c0.3,0.2,0.7,0.3,1.3,0.3h0.3v1.5h-8.5v-1.5h0.3
				c1.1,0.1,1.7-0.4,1.7-1.3v-18.2h-1.3c-0.9,0-1.7,0.3-2.5,0.9c-0.7,0.6-1.3,1.3-1.8,2.2c-0.5,0.9-1,1.7-1.4,2.5l-0.1,0.2
				L214.9,163.4z"></path>
		</g>
	</g>
</g>
<g>
	<g transform="translate(253.826363, 236.842763)">
		<g>
			<path d="M236.1,176.7c0-0.6,0.2-1.2,0.7-1.7c0.5-0.5,1.1-0.8,1.8-0.8c0.7,0,1.3,0.3,1.8,0.8c0.5,0.5,0.8,1,0.8,1.7
				c0,0.6-0.3,1.2-0.8,1.7c-0.5,0.5-1.1,0.7-1.8,0.7c-0.7,0-1.3-0.2-1.8-0.7C236.4,177.9,236.1,177.4,236.1,176.7z"></path>
		</g>
	</g>
</g>
<g>
	<g transform="translate(200.432526, 246.592762)">
		<g>
			<path d="M100.1,202.7v-1.5h0.2c0.9,0,1.5-0.1,1.9-0.4c0.4-0.3,0.7-0.9,0.7-1.7v-16c0-0.4-0.1-0.6-0.4-0.8
				c-0.3-0.2-0.6-0.4-0.9-0.4c-0.4-0.1-0.7-0.2-1-0.2h-0.2v-1.5h6.4l10.9,14.9v-11.2c0-0.9-0.3-1.4-1-1.7c-0.6-0.3-1.4-0.4-2.2-0.4
				h-0.2v-1.5h7.9v1.5H122c-0.8,0-1.5,0.1-2,0.4c-0.5,0.3-0.7,0.9-0.7,1.7v18.9h-1.4l-13.4-18.1V199c0,0.9,0.3,1.4,0.9,1.7
				c0.7,0.3,1.4,0.4,2.3,0.4h0.2v1.5H100.1z"></path>
		</g>
	</g>
</g>
<g>
	<g transform="translate(207.975235, 246.592762)">
		<g>
			<path d="M118.8,201.2h0.2c0.5,0,1-0.1,1.3-0.3c0.3-0.2,0.5-0.6,0.5-1.1V183c0-0.5-0.2-0.9-0.5-1.1c-0.3-0.2-0.8-0.3-1.3-0.3h-0.2
				v-1.5h17l1.6,7.2l-1.5,0.1l-0.1-0.2c-0.2-0.3-0.4-0.7-0.5-1c-0.1-0.4-0.3-0.8-0.4-1.1c-0.5-1.1-1.3-2-2.1-2.6
				c-0.8-0.6-1.9-0.9-3.3-0.9h-4.2v9.3c0.6,0,1.2,0,1.8,0c0.6,0,1.2,0,1.8,0c1.2,0,2.2-0.2,2.9-0.6c0.7-0.4,1.1-1.2,1.1-2.4v-0.2
				h1.5v7.3h-1.5v-0.2c0-0.8-0.2-1.3-0.5-1.6c-0.4-0.3-0.8-0.5-1.4-0.6c-0.6-0.1-1.3-0.2-2-0.2c-0.6,0-1.2,0-1.8,0
				c-0.6,0-1.2,0-1.8,0v8.7h5.9c1.2,0,2.2-0.3,2.9-0.9c0.7-0.6,1.3-1.4,1.8-2.4c0.2-0.4,0.3-0.7,0.4-1.1c0.1-0.4,0.3-0.8,0.5-1.2
				l0.1-0.1l1.5,0.1l-1.6,7.2h-17.9V201.2z"></path>
		</g>
	</g>
</g>
<g>
	<g transform="translate(214.723621, 246.592762)">
		<g>
			<path d="M135.6,181.6v-1.5h10v1.5h-0.2c-0.2,0-0.5,0-0.8,0.1c-0.3,0-0.6,0.1-0.9,0.3c-0.3,0.1-0.4,0.3-0.4,0.6
				c0,0.1,0,0.3,0.1,0.5l6.1,14.3l4.3-9.9l-1.9-4.3c-0.3-0.6-0.6-1-1-1.2c-0.4-0.2-1-0.3-1.7-0.3H149v-1.5h10.1v1.5h-0.3
				c-0.2,0-0.5,0-0.8,0.1c-0.3,0-0.6,0.1-0.9,0.3c-0.3,0.1-0.4,0.3-0.4,0.6c0,0.2,0,0.4,0.1,0.5l6.2,14.3l5.6-13.4
				c0.1-0.3,0.2-0.6,0.2-0.9c0-0.4-0.1-0.7-0.4-0.9c-0.2-0.2-0.5-0.3-0.9-0.4c-0.3-0.1-0.7-0.2-1.1-0.2c-0.2,0-0.4,0-0.6,0
				c-0.2,0-0.4,0-0.5,0H165v-1.5h9.6v1.5l-0.2,0.1c-0.9,0-1.7,0.3-2.4,0.8c-0.7,0.4-1.2,1-1.5,1.8l-8.1,18.5h-2l-5.6-13.1l-5.7,13.1
				h-2l-8.4-19.5c-0.3-0.6-0.6-1-1-1.2c-0.4-0.2-1-0.3-1.7-0.3H135.6z"></path>
		</g>
	</g>
</g>
<g>
	<g transform="translate(226.981982, 246.592762)">
		<g>
			<path d="M177.7,203.1c-2.5,0-4.5-0.5-6.2-1.5c-1.6-1-2.9-2.3-3.7-4.1c-0.8-1.8-1.2-3.8-1.2-6.1c0-2.3,0.5-4.3,1.4-6
				c0.9-1.8,2.2-3.1,3.9-4.2c1.7-1,3.7-1.5,6.1-1.5c1.3,0,2.6,0.2,3.8,0.5c1.2,0.4,2.4,1,3.4,1.8c0.1,0.1,0.2,0.2,0.4,0.5
				c0.2,0.2,0.4,0.4,0.4,0.5l0.4,4.1h-1.3c-0.5-1-1.1-1.9-1.8-2.8c-0.7-0.9-1.5-1.6-2.4-2.2c-0.9-0.6-2-0.9-3.3-0.9
				c-1.1,0-2.1,0.4-3,1c-0.8,0.6-1.5,1.5-2,2.5c-0.5,1.1-0.9,2.1-1.1,3.3c-0.2,1.1-0.3,2.1-0.3,3.1c0,0.9,0.1,2,0.3,3.2
				c0.2,1.2,0.6,2.3,1.1,3.3c0.5,1.1,1.2,2,2.1,2.6c0.8,0.7,1.8,1,3,1c1.4,0,2.6-0.2,3.5-0.7c0.9-0.5,1.7-1.2,2.4-2
				c0.7-0.9,1.2-1.8,1.6-3h1.4l-0.4,3.9c-0.1,0.2-0.2,0.4-0.4,0.5c-0.2,0.2-0.3,0.4-0.4,0.5c-1,1-2.2,1.6-3.6,2
				C180.5,203,179.1,203.1,177.7,203.1z"></path>
		</g>
	</g>
</g>
<g>
	<g transform="translate(234.062166, 246.592762)">
		<g>
			<path d="M184.6,191.3c0-1.5,0.2-2.9,0.5-4.3c0.4-1.4,1-2.6,1.8-3.7c0.8-1.1,1.8-2,3.1-2.6c1.3-0.6,2.8-1,4.6-1
				c1.8,0,3.3,0.3,4.5,1c1.3,0.6,2.3,1.5,3.1,2.6c0.8,1.1,1.4,2.3,1.8,3.7c0.4,1.4,0.6,2.8,0.6,4.3c0,1.4-0.2,2.9-0.6,4.3
				c-0.4,1.4-1,2.7-1.8,3.8c-0.8,1.1-1.8,2-3.1,2.7c-1.3,0.7-2.8,1-4.6,1c-1.8,0-3.3-0.3-4.6-1c-1.2-0.7-2.3-1.6-3.1-2.7
				c-0.8-1.1-1.4-2.4-1.8-3.8C184.8,194.2,184.6,192.8,184.6,191.3z M189.4,191.3c0,0.6,0,1.4,0.1,2.3c0.1,0.9,0.2,1.8,0.4,2.7
				c0.2,0.9,0.5,1.8,0.9,2.5c0.4,0.8,0.9,1.4,1.5,1.9c0.6,0.5,1.4,0.7,2.3,0.7c0.9,0,1.7-0.2,2.4-0.7c0.6-0.5,1.1-1.1,1.5-1.9
				c0.4-0.8,0.7-1.6,0.9-2.6c0.2-0.9,0.4-1.8,0.4-2.7c0.1-0.9,0.1-1.7,0.1-2.3c0-0.7,0-1.5-0.1-2.3c-0.1-0.9-0.2-1.8-0.4-2.7
				c-0.2-0.9-0.5-1.7-0.9-2.5c-0.4-0.8-0.9-1.4-1.5-1.9c-0.6-0.5-1.4-0.8-2.3-0.8c-1,0-1.7,0.3-2.4,0.8c-0.6,0.5-1.1,1.1-1.5,1.9
				c-0.4,0.8-0.7,1.6-0.9,2.5c-0.2,0.9-0.3,1.8-0.4,2.7C189.4,189.9,189.4,190.7,189.4,191.3z"></path>
		</g>
	</g>
</g>
<g>
	<g transform="translate(241.222791, 246.592762)">
		<g>
			<path d="M210.3,202.7h-8v-1.5h0.2c0.9,0,1.5-0.1,2-0.4c0.4-0.3,0.7-0.9,0.7-1.7V183c0-0.5-0.3-0.8-0.8-1c-0.5-0.2-1-0.3-1.4-0.3
				h-0.3v-1.5h6.6l8.1,16.4l6.6-16.2v-0.2h6.5v1.5h-0.3c-0.5,0-0.9,0.1-1.3,0.3c-0.3,0.2-0.4,0.5-0.4,1v16.9c0,0.5,0.1,0.9,0.4,1.1
				c0.3,0.2,0.7,0.3,1.3,0.3h0.3v1.5H222v-1.5h0.2c0.5,0,1-0.1,1.3-0.3c0.3-0.2,0.5-0.6,0.5-1.1v-15.5l-7.3,18h-1.4l-8.6-17.3v14
				c0,1,0.3,1.6,0.9,1.8c0.7,0.2,1.5,0.3,2.5,0.3h0.2V202.7z"></path>
		</g>
	</g>
</g>
<g>
	<g transform="translate(250.64573, 246.592762)">
		<g>
			<path d="M231.7,202.7h-6.3v-1.5h0.3c0.5,0,1-0.1,1.3-0.3c0.3-0.2,0.5-0.6,0.5-1.1V183c0-0.5-0.2-0.9-0.5-1.1
				c-0.3-0.2-0.7-0.3-1.3-0.3h-0.3v-1.5h6.3c0.4,0,0.8,0,1.2,0c0.4,0,0.8,0,1.3,0c0.6,0,1.3,0,1.9,0.1c0.7,0,1.3,0.1,2,0.3
				c1.3,0.3,2.4,0.9,3.1,1.8c0.8,0.9,1.1,2,1.1,3.3c0,1-0.3,1.9-0.8,2.8c-0.5,0.8-1.2,1.5-2.2,1.9c1.4,0.4,2.6,1.1,3.4,2.3
				c0.8,1.2,1.3,2.5,1.3,3.9c0,1.6-0.5,3-1.5,4.1c-1,1.2-2.3,1.9-4,2.2c-0.5,0.1-1,0.2-1.5,0.2c-0.5,0-1,0.1-1.5,0.1
				c-0.6,0-1.3,0-1.9-0.1C233,202.7,232.4,202.7,231.7,202.7z M232,201.2c0.3,0,0.6,0,0.9,0.1c0.3,0,0.6,0,0.9,0
				c1.8,0,3.1-0.4,4-1.2c0.9-0.8,1.4-2.1,1.4-3.8c0-1-0.2-1.9-0.7-2.8c-0.5-0.9-1.2-1.5-2.2-1.8c-0.4-0.1-0.8-0.2-1.3-0.3
				c-0.4,0-0.9-0.1-1.3-0.1c-0.3,0-0.6,0-0.9,0c-0.3,0-0.5,0-0.8,0V201.2z M232,181.6v8.3c0.1,0,0.3,0,0.4,0c0.1,0,0.3,0,0.4,0
				c0.5,0,1,0,1.5-0.1c0.5,0,1-0.1,1.4-0.2c0.8-0.2,1.4-0.7,1.7-1.5c0.3-0.7,0.5-1.5,0.5-2.2s-0.2-1.5-0.5-2.3
				c-0.4-0.8-0.9-1.4-1.6-1.7c-0.4-0.2-0.9-0.3-1.4-0.3c-0.5,0-1.1-0.1-1.5-0.1H232z"></path>
		</g>
	</g>
</g>
</svg></svg></g></g><defs><clipPath id="SvgjsClipPath1095"><rect width="1000" height="1000" x="0" y="0" rx="200" ry="200"></rect></clipPath></defs></svg>